<mxfile host="app.diagrams.net" modified="2024-04-01T18:27:33.681Z" agent="Mozilla/5.0 (Windows NT 10.0; Win64; x64) AppleWebKit/537.36 (KHTML, like Gecko) Chrome/123.0.0.0 Safari/537.36" version="24.2.1" etag="xz1LJ6w89kMRofbfx7xy" type="github">
  <diagram name="Page-1" id="HALQuS1U2WsWU5c-AWcn">
    <mxGraphModel>
      <root>
        <mxCell id="0" />
        <mxCell id="1" parent="0" />
      </root>
    </mxGraphModel>
  </diagram>
</mxfile>
